<svg width="200" height="200" viewBox="0 0 200 200" fill="none" xmlns="http://www.w3.org/2000/svg">
<path d="M176.188 60.0875C170.788 56.8687 164.569 56.3625 157.119 57.7562C152.313 58.6562 147.088 60.5062 141.488 63.325C141.569 61.3687 141.613 59.4312 141.613 57.525H141.55C141.719 56.65 141.806 55.7625 141.806 54.8687C141.806 39.7375 117.069 27.475 86.5563 27.475C56.0438 27.475 31.3063 39.7437 31.3063 54.8687C31.3063 55.7625 31.3938 56.65 31.5625 57.525H31.5313C31.3188 89.3375 37.8688 121.212 37.3625 152.994C37.1188 168.112 55.9188 180.137 86.4125 180.137C116.906 180.137 132.038 167.825 132.038 152.994C132.038 150.975 132.075 148.956 132.144 146.925C148.15 147.787 161.563 140.475 170.969 130.206C180.744 119.544 186.731 105.781 188.269 92.875C189.806 79.9687 186.963 66.5187 176.169 60.0812L176.188 60.0875ZM86.7688 42.9187C110.05 42.9187 128.919 49.3062 128.919 57.1812C128.919 57.2937 128.913 57.4125 128.906 57.525C128.9 57.6437 128.888 57.7625 128.869 57.8812C128.85 57.9937 128.831 58.1 128.806 58.2125C128.806 58.225 128.8 58.2312 128.8 58.2437C128.775 58.35 128.75 58.45 128.719 58.55C128.713 58.5687 128.713 58.5812 128.706 58.6C128.675 58.7 128.644 58.7937 128.613 58.8937C128.606 58.9125 128.6 58.9375 128.594 58.9562C128.556 59.05 128.519 59.1437 128.481 59.2375C128.469 59.2625 128.463 59.2875 128.45 59.3125C128.413 59.4 128.369 59.4937 128.319 59.5812C128.306 59.6062 128.294 59.6375 128.281 59.6625C128.238 59.75 128.188 59.8375 128.138 59.9187C128.119 59.95 128.106 59.975 128.088 60.0062C128.038 60.0875 127.981 60.175 127.931 60.2562C127.913 60.2875 127.894 60.3187 127.869 60.35C127.813 60.4312 127.756 60.5125 127.694 60.5937C127.669 60.625 127.65 60.6562 127.625 60.6937C127.563 60.775 127.5 60.85 127.438 60.9312C127.413 60.9625 127.388 61 127.356 61.0312C127.294 61.1062 127.225 61.1875 127.156 61.2625C127.125 61.2937 127.1 61.3312 127.069 61.3625C127 61.4375 126.925 61.5125 126.856 61.5875C126.825 61.625 126.788 61.6562 126.756 61.6937C126.681 61.7687 126.606 61.8437 126.531 61.9125C126.494 61.95 126.456 61.9812 126.419 62.0187C126.344 62.0937 126.263 62.1625 126.181 62.2312C126.138 62.2687 126.1 62.3062 126.056 62.3375C125.975 62.4062 125.894 62.4812 125.806 62.55C125.763 62.5875 125.719 62.625 125.675 62.6625C125.588 62.7312 125.5 62.8 125.413 62.8687C125.363 62.9062 125.319 62.9437 125.269 62.9812C125.181 63.05 125.088 63.1187 124.994 63.1812C124.944 63.2187 124.894 63.2562 124.844 63.2937C124.75 63.3625 124.656 63.425 124.563 63.4875C124.506 63.525 124.456 63.5625 124.4 63.6C124.306 63.6625 124.206 63.725 124.106 63.7937C124.05 63.8312 123.988 63.8687 123.931 63.9062C123.831 63.9687 123.731 64.0312 123.631 64.0937C123.569 64.1312 123.506 64.1687 123.444 64.2062C123.344 64.2687 123.238 64.3312 123.131 64.3875C123.069 64.425 123 64.4625 122.938 64.5C122.831 64.5625 122.725 64.6187 122.613 64.6812C122.544 64.7187 122.475 64.7562 122.406 64.7937C122.3 64.85 122.188 64.9125 122.075 64.9687C122 65.0062 121.931 65.0437 121.856 65.0812C121.744 65.1375 121.631 65.1937 121.513 65.25C121.438 65.2875 121.363 65.325 121.288 65.3625C121.169 65.4187 121.056 65.475 120.938 65.5312C120.856 65.5687 120.781 65.6062 120.7 65.6437C120.581 65.7 120.463 65.75 120.338 65.8062C120.256 65.8437 120.175 65.8812 120.088 65.9125C119.969 65.9625 119.844 66.0187 119.719 66.0687C119.631 66.1062 119.544 66.1437 119.463 66.175C119.338 66.225 119.213 66.275 119.088 66.3312C119 66.3687 118.906 66.4 118.819 66.4375C118.694 66.4875 118.563 66.5375 118.431 66.5875C118.338 66.625 118.25 66.6562 118.156 66.6937C118.025 66.7437 117.894 66.7937 117.763 66.8375C117.669 66.875 117.569 66.9062 117.475 66.9437C117.344 66.9937 117.213 67.0375 117.075 67.0875C116.975 67.125 116.875 67.1562 116.775 67.1937C116.644 67.2375 116.506 67.2875 116.369 67.3312C116.269 67.3625 116.163 67.4 116.063 67.4312C115.925 67.475 115.788 67.5187 115.65 67.5625C115.544 67.5937 115.438 67.6312 115.331 67.6625C115.194 67.7062 115.056 67.75 114.913 67.7937C114.8 67.825 114.694 67.8625 114.581 67.8937C114.444 67.9375 114.3 67.975 114.156 68.0187C114.044 68.05 113.931 68.0812 113.819 68.1125C113.675 68.15 113.531 68.1937 113.388 68.2312C113.269 68.2625 113.156 68.2937 113.038 68.325C112.894 68.3625 112.75 68.4 112.606 68.4375C112.488 68.4687 112.369 68.5 112.244 68.5312C112.1 68.5687 111.95 68.6062 111.8 68.6437C111.681 68.675 111.556 68.7062 111.431 68.7312C111.281 68.7687 111.131 68.8062 110.981 68.8375C110.856 68.8687 110.731 68.8937 110.606 68.925C110.456 68.9625 110.306 68.9937 110.156 69.0312C110.031 69.0625 109.9 69.0875 109.769 69.1187C109.619 69.15 109.469 69.1875 109.313 69.2187C109.181 69.25 109.05 69.275 108.919 69.3C108.763 69.3312 108.613 69.3625 108.456 69.3937C108.325 69.4187 108.188 69.45 108.056 69.475C107.9 69.5062 107.744 69.5375 107.588 69.5687C107.45 69.5937 107.313 69.6187 107.181 69.6437C107.025 69.675 106.869 69.7 106.706 69.7312C106.569 69.7562 106.425 69.7812 106.288 69.8062C106.131 69.8375 105.969 69.8625 105.813 69.8875C105.669 69.9125 105.525 69.9375 105.381 69.9625C105.225 69.9875 105.063 70.0125 104.9 70.0437C104.756 70.0687 104.606 70.0875 104.463 70.1125C104.3 70.1375 104.138 70.1625 103.975 70.1875C103.825 70.2125 103.681 70.2312 103.531 70.2562C103.369 70.2812 103.206 70.3062 103.044 70.325C102.894 70.3437 102.738 70.3687 102.588 70.3875C102.425 70.4125 102.263 70.4312 102.1 70.4562C101.944 70.475 101.788 70.4937 101.631 70.5187C101.469 70.5375 101.306 70.5625 101.138 70.5812C100.981 70.6 100.825 70.6187 100.669 70.6375C100.506 70.6562 100.338 70.675 100.175 70.6937C100.019 70.7125 99.8563 70.7312 99.7 70.7437C99.5313 70.7625 99.3688 70.7812 99.2 70.8C99.0375 70.8187 98.875 70.8312 98.7188 70.85C98.55 70.8687 98.3813 70.8812 98.2125 70.9C98.05 70.9125 97.8875 70.9312 97.725 70.9437C97.5563 70.9562 97.3875 70.975 97.2125 70.9875C97.0375 71 96.875 71.0125 96.7063 71.0312C96.5375 71.0437 96.375 71.0562 96.2063 71.075C96.0375 71.0937 95.8563 71.1 95.6813 71.1125C95.5188 71.125 95.3563 71.1375 95.1875 71.15C95.0125 71.1625 94.8313 71.175 94.6563 71.1875C94.4938 71.2 94.325 71.2062 94.1625 71.2187C93.9813 71.2312 93.8 71.2375 93.6125 71.25C93.45 71.2562 93.2875 71.2687 93.125 71.275C92.9375 71.2875 92.75 71.2937 92.5625 71.3C92.4 71.3062 92.2438 71.3125 92.0813 71.325C91.8938 71.3312 91.7 71.3375 91.5125 71.35C91.35 71.3562 91.1938 71.3625 91.0313 71.3687C90.8375 71.375 90.6438 71.3812 90.45 71.3875C90.2875 71.3937 90.1313 71.4 89.9688 71.4C89.7688 71.4062 89.5688 71.4062 89.3625 71.4125C89.2063 71.4187 89.0563 71.4187 88.9 71.425C88.6625 71.4312 88.4313 71.4312 88.1938 71.4312C88.0688 71.4312 87.95 71.4375 87.825 71.4375C87.475 71.4375 87.1188 71.4437 86.7688 71.4437H86.75C86.3875 71.4437 86.0313 71.4437 85.6688 71.4375C85.5625 71.4375 85.4563 71.4375 85.35 71.4312C85.1 71.4312 84.8438 71.425 84.5938 71.4187C84.4563 71.4187 84.3188 71.4125 84.1813 71.4125C83.9625 71.4062 83.7438 71.4062 83.5313 71.4C83.3875 71.3937 83.2438 71.3937 83.0938 71.3875C82.8875 71.3812 82.675 71.375 82.4688 71.3687C82.325 71.3625 82.1813 71.3562 82.0375 71.35C81.8313 71.3437 81.625 71.3375 81.4188 71.325C81.275 71.3187 81.1313 71.3125 80.9875 71.3062C80.7813 71.2937 80.5813 71.2875 80.375 71.275C80.2313 71.2687 80.0875 71.2562 79.9375 71.25C79.7375 71.2375 79.5375 71.2312 79.3375 71.2187C79.1875 71.2125 79.0438 71.2 78.8938 71.1875C78.7 71.175 78.5063 71.1625 78.3125 71.15C78.1625 71.1375 78.0188 71.1312 77.8688 71.1187C77.675 71.1062 77.4813 71.0937 77.2938 71.075C77.1438 71.0625 76.9938 71.05 76.8438 71.0375C76.6563 71.025 76.475 71.0062 76.2875 70.9937C76.1313 70.9812 75.9813 70.9687 75.8313 70.95C75.65 70.9312 75.4688 70.9187 75.2875 70.9C75.1375 70.8875 74.9875 70.8687 74.8375 70.8562C74.6563 70.8375 74.4813 70.8187 74.3 70.8C74.15 70.7875 74 70.7687 73.85 70.75C73.675 70.7312 73.4938 70.7125 73.3188 70.6937C73.1688 70.675 73.025 70.6562 72.875 70.6437C72.7 70.625 72.525 70.6 72.35 70.5812C72.2063 70.5625 72.0563 70.5437 71.9125 70.525C71.7375 70.5 71.5625 70.4812 71.3938 70.4562C71.25 70.4375 71.1063 70.4187 70.9625 70.4C70.7938 70.375 70.6188 70.3562 70.45 70.3312C70.3063 70.3125 70.1625 70.2875 70.0188 70.2687C69.85 70.2437 69.6875 70.2187 69.5188 70.1937C69.375 70.1687 69.2313 70.15 69.0875 70.125C68.925 70.1 68.7563 70.075 68.5938 70.05C68.45 70.025 68.3125 70.0062 68.1688 69.9812C68.0063 69.9562 67.8438 69.925 67.6813 69.9C67.5375 69.875 67.4 69.85 67.2625 69.825C67.1 69.7937 66.9438 69.7687 66.7875 69.7375C66.65 69.7125 66.5063 69.6875 66.3688 69.6625C66.2125 69.6312 66.0563 69.6062 65.9063 69.575C65.7688 69.55 65.6313 69.5187 65.4938 69.4937C65.3375 69.4625 65.1875 69.4312 65.0375 69.4C64.9 69.375 64.7688 69.3437 64.6313 69.3187C64.4813 69.2875 64.325 69.2562 64.1813 69.225C64.05 69.1937 63.9125 69.1687 63.7813 69.1375C63.6313 69.1062 63.4875 69.075 63.3375 69.0375C63.2063 69.0062 63.075 68.975 62.9375 68.9437C62.7938 68.9125 62.65 68.875 62.5063 68.8437C62.375 68.8125 62.2438 68.7812 62.1125 68.75C61.9688 68.7125 61.8313 68.6812 61.6875 68.6437C61.5563 68.6125 61.4313 68.5812 61.3063 68.5437C61.1688 68.5062 61.025 68.4687 60.8875 68.4375C60.7625 68.4062 60.6375 68.3687 60.5125 68.3375C60.375 68.3 60.2375 68.2625 60.1063 68.225C59.9813 68.1875 59.8563 68.1562 59.7313 68.1187C59.6 68.0812 59.4688 68.0437 59.3375 68.0062C59.2125 67.9687 59.0938 67.9375 58.9688 67.9C58.8375 67.8625 58.7063 67.825 58.5813 67.7812C58.4625 67.7437 58.3438 67.7062 58.2188 67.6687C58.0938 67.6312 57.9688 67.5875 57.8438 67.55C57.7188 67.5125 57.6063 67.475 57.4875 67.4375C57.3625 67.4 57.2438 67.3562 57.1188 67.3187C56.9938 67.2812 56.8875 67.2375 56.7688 67.2C56.65 67.1562 56.5313 67.1187 56.4125 67.075C56.2938 67.0312 56.1875 66.9937 56.0688 66.9562C55.95 66.9125 55.8375 66.875 55.725 66.8312C55.6125 66.7875 55.5 66.75 55.3875 66.7062C55.275 66.6625 55.1625 66.6187 55.0563 66.5812C54.95 66.5437 54.8375 66.4937 54.725 66.45C54.6125 66.4062 54.5063 66.3625 54.4 66.3187C54.2938 66.275 54.1875 66.2312 54.0813 66.1875C53.975 66.1437 53.8688 66.1 53.7688 66.0562C53.6688 66.0125 53.5563 65.9687 53.4563 65.925C53.3563 65.8812 53.2563 65.8375 53.15 65.7937C53.0438 65.75 52.9438 65.7 52.8438 65.6562C52.7438 65.6125 52.65 65.5687 52.55 65.5187C52.45 65.4687 52.35 65.425 52.25 65.375C52.1563 65.3312 52.0625 65.2812 51.9688 65.2375C51.875 65.1937 51.775 65.1437 51.6813 65.0937C51.5875 65.05 51.5 65 51.4063 64.9562C51.3125 64.9125 51.2188 64.8625 51.1313 64.8125C51.0438 64.7625 50.9563 64.7187 50.8688 64.6687C50.7813 64.6187 50.6875 64.5687 50.6 64.5187C50.5188 64.4687 50.4313 64.425 50.35 64.375C50.2688 64.325 50.175 64.275 50.0875 64.225C50.0063 64.175 49.925 64.1312 49.85 64.0812C49.775 64.0312 49.6813 63.9812 49.6 63.925C49.525 63.875 49.45 63.825 49.3688 63.7812C49.2875 63.7375 49.2063 63.675 49.125 63.625C49.05 63.575 48.9813 63.525 48.9063 63.475C48.825 63.4187 48.75 63.3687 48.675 63.3125C48.6063 63.2625 48.5375 63.2125 48.475 63.1625C48.4 63.1062 48.325 63.05 48.25 63C48.1875 62.95 48.1188 62.9 48.0563 62.85C47.9875 62.7937 47.9125 62.7375 47.8438 62.6812C47.7813 62.6312 47.725 62.5812 47.6625 62.5312C47.5938 62.475 47.525 62.4187 47.4625 62.3625C47.4063 62.3125 47.35 62.2625 47.2938 62.2125C47.2313 62.1562 47.1625 62.1 47.1063 62.0375C47.05 61.9875 47 61.9375 46.95 61.8875C46.8875 61.8312 46.8313 61.7687 46.7688 61.7125C46.7188 61.6625 46.6688 61.6125 46.625 61.5625C46.5688 61.5 46.5125 61.4437 46.4563 61.3812C46.4125 61.3312 46.3688 61.2812 46.325 61.2312C46.275 61.1687 46.2188 61.1125 46.1688 61.05C46.125 61 46.0875 60.95 46.0438 60.9C45.9938 60.8375 45.9438 60.775 45.9 60.7125C45.8625 60.6625 45.825 60.6062 45.7875 60.5562C45.7438 60.4937 45.7 60.4312 45.6563 60.3687C45.6188 60.3187 45.5875 60.2625 45.5563 60.2125C45.5188 60.15 45.475 60.0875 45.4375 60.025C45.4063 59.975 45.3813 59.925 45.35 59.8687C45.3125 59.8062 45.275 59.7375 45.2438 59.675C45.2188 59.625 45.1938 59.575 45.1688 59.5187C45.1375 59.45 45.1063 59.3875 45.075 59.3187C45.05 59.2687 45.0313 59.2187 45.0125 59.1687C44.9875 59.1 44.9563 59.0375 44.9313 58.9687C44.9125 58.9187 44.9 58.8687 44.8813 58.8187C44.8563 58.75 44.8375 58.6812 44.8125 58.6187C44.8 58.5687 44.7875 58.5187 44.775 58.4687C44.7563 58.4 44.7375 58.3312 44.725 58.2625C44.7125 58.2125 44.7063 58.1625 44.7 58.1125C44.6875 58.0437 44.6688 57.9687 44.6625 57.9C44.6563 57.85 44.65 57.8062 44.6438 57.7562C44.6375 57.6812 44.625 57.6062 44.6188 57.5375C44.6125 57.4187 44.6063 57.3 44.6063 57.1875C44.6063 49.3125 63.475 42.9312 86.7563 42.9312L86.7688 42.9187ZM174.388 91.5C173.219 101.306 168.475 112.662 160.944 120.881C153.706 128.781 144.563 133.631 133.069 132.994C134.744 115 138.088 96.9937 140.063 80.225C156.288 69.8562 165.331 69.7687 169.288 72.1312C173.294 74.5187 175.55 81.7 174.381 91.5062L174.388 91.5Z" fill="#8197D3"/>
</svg>
